<svg width="198" height="52" viewBox="0 0 198 52" fill="none" xmlns="http://www.w3.org/2000/svg">
<path fill-rule="evenodd" clip-rule="evenodd" d="M23.2567 8.06598L27.5547 21.2871C28.3039 23.5985 29.0723 25.9279 29.8226 28.3008C30.0107 28.5368 30.1515 28.2561 30.2282 28.1152L30.8095 26.0039L38.2958 0.0615044L38.4536 0.0279581L59.9944 0.0436136V5.95695H56.4151L56.4298 46.2712L198 46.3036V51.9978H38.9842V46.2891H41.9213L41.9517 11.7909C41.9697 10.9365 41.9168 10.4781 41.9314 9.71429C41.9314 9.2558 41.7782 9.41907 41.7185 9.41907L41.5765 9.71094L38.858 19.3637L35.0613 32.7392L32.0747 43.2921L29.6198 51.9832H23.5349C23.0685 50.525 22.7249 49.0489 22.2844 47.6679C21.0688 43.3414 19.3023 38.2052 17.7994 33.3318C17.1268 31.2374 16.5792 29.4392 15.8458 27.158C13.8145 20.7157 12.235 15.3872 10.2173 9.39783C10.1699 9.30277 10.1249 9.42689 10.0787 9.45932V46.2734L13.765 46.2913V52H0V46.288L3.73134 46.2913L3.74712 5.41683L0.0405584 5.40118L0.0247858 0.031311H20.5832L20.6136 0L21.4428 2.46799L23.2567 8.06598ZM130.608 38.5787H133.282V43.2899H117.771C117.709 42.0173 117.742 38.6547 117.742 38.5787C118.543 38.5787 119.41 38.5753 120.425 38.5753L120.414 20.3556L120.337 20.2002H117.772V15.8692H130.609L130.608 38.5787ZM185.141 21.5521C184.452 20.2471 183.015 19.688 181.638 19.7685C180.184 19.8289 179.062 20.8689 178.653 22.2018L178.637 36.5267C178.67 37.2703 178.934 38.2801 179.341 38.7923C180.483 40.2181 182.012 40.4205 183.658 40.0481C184.736 39.7517 185.441 38.7632 185.581 37.6271L185.597 23.0897C185.596 22.5418 185.39 22.0296 185.141 21.5521ZM187.876 16.9885C189.287 17.7333 190.972 18.5865 191.96 19.8434C194.38 22.4669 196.289 26.3606 196.055 30.8627C195.897 32.3657 195.838 33.8116 195.254 35.1143C194.257 38.0319 191.91 41.2748 188.737 42.8873C187.47 43.6511 186.048 44.1443 184.579 44.454L181.967 44.6408C179.169 44.4697 177.246 43.7719 175.011 42.4244C172.137 40.6564 169.636 37.1306 168.76 33.6561C168.415 32.3874 168.258 31.0759 168.291 29.7624C168.432 28.5021 168.476 26.9198 169.024 25.3866C169.697 22.9947 171.18 20.8387 172.946 19.2116C173.948 18.2175 175.278 17.6092 176.495 16.9606C178.201 16.1532 179.78 15.8256 181.796 15.735C184.032 15.839 185.732 15.9653 187.876 16.9885ZM76.4711 21.5029C75.7873 20.2952 74.3756 19.6578 72.9719 19.7685C71.5647 19.8434 70.3908 20.8689 70.0156 22.1705L70.001 34.818C69.9548 35.7965 70.3142 36.7884 70.8764 37.5354C71.9399 38.7766 73.6107 38.9164 75.1744 38.4814C76.1917 38.1392 76.9116 37.0545 76.9409 35.9385L76.9105 22.8091C76.8534 22.3489 76.704 21.9048 76.4711 21.5029ZM73.0023 15.7339C74.3452 15.839 75.3163 16.6642 76.4858 17.1753C76.5388 17.169 76.5877 17.1435 76.623 17.1037C76.6584 17.0638 76.6777 17.0125 76.6773 16.9595V16.6944C76.7381 16.4786 76.6773 16.0414 76.7539 15.8714C76.8947 15.8714 87.744 15.8714 88.7602 15.8904C88.7918 17.1317 88.7602 20.1912 88.7602 20.1912C88.0381 20.1912 87.4838 20.2024 86.8529 20.2024C86.8529 22.0889 86.8067 37.4425 86.8529 38.0486C86.8529 38.2354 86.8529 38.4367 86.8371 38.5776C87.5255 38.6078 88.1834 38.5932 88.7602 38.5932V43.2664L76.7077 43.262C76.6131 42.7498 76.6131 42.1761 76.5658 41.6494C76.4407 41.5432 76.3134 41.6338 76.2221 41.7143C75.4718 42.5194 74.3948 42.6279 73.4225 43.0461C73.2197 42.9846 73.0181 43.0909 72.831 43.1211C71.8137 43.1859 70.7502 43.527 69.7486 43.2161C68.7516 42.9544 67.6576 42.9354 66.7316 42.5015C62.8233 40.9349 60.2918 37.3978 59.2441 33.532L59.1675 33.437C58.8396 32.1208 58.6211 30.6637 58.7585 29.4526C58.8847 27.2016 59.0728 24.1275 60.4022 21.8317C61.2134 20.359 62.215 18.7308 63.7787 17.8764C64.1077 17.6114 64.5133 17.3352 64.8873 17.1328C65.9812 16.3388 67.4853 15.8412 68.5634 15.5807C68.9848 15.5315 69.2473 15.565 69.7328 15.4543C70.7198 15.4834 71.9252 15.4062 73.0023 15.7339ZM155.221 21.5029C154.501 20.0951 152.661 19.5471 151.345 19.8289C150.128 20.0157 149.112 21.0087 148.766 22.2209L148.752 35.054C148.814 35.9978 149.064 36.8063 149.628 37.5354C150.75 38.8079 152.563 38.9321 154.081 38.4199C154.928 38.109 155.533 37.1641 155.677 36.2304L155.692 22.8393C155.606 22.3723 155.447 21.9214 155.221 21.5029ZM148.737 16.3522C148.781 16.4775 148.596 16.8644 148.924 16.8644C150.33 16.5681 151.47 15.7339 153.095 15.6075C155.3 15.4677 158.223 15.8233 160.197 17.0959C162.053 18.1851 163.147 19.3469 164.038 21.1652C164.306 22.1247 165.006 23.6321 165.336 24.5513C165.493 24.6721 166.135 28.3165 166.211 30.3058C166.089 31.5124 166.089 32.492 165.916 33.5779C165.835 34.014 165.679 34.4154 165.57 34.8325C164.794 37.1838 163.304 39.2391 161.304 40.7168C161.066 40.8868 160.662 41.1507 160.459 41.3352C158.61 42.5004 156.832 43.4017 154.221 43.5102C152.764 43.385 151.22 43.4006 150.077 42.5608C149.8 42.3908 149.431 42.0788 148.997 42.1739C148.895 42.1963 148.764 42.1437 148.735 42.2678C148.562 42.5955 148.826 43.092 148.467 43.2642H135.978V38.5798H138.635L138.633 9.39558H135.992L135.977 4.61952L136.023 4.60386L148.734 4.61952V16.3522H148.737ZM129.994 6.79452C130.683 8.76489 130.624 10.9052 129.544 12.7996C128.558 14.4277 126.335 15.1703 124.543 15.0182C122.601 14.8135 120.758 13.4973 120.131 11.6489C119.38 9.46268 119.365 6.48141 121.275 4.94605C122.351 4.07605 123.46 3.71932 124.807 3.59743C126.885 3.6444 129.136 4.52894 129.994 6.79452ZM109.904 15.4834C111.123 15.4219 112.922 15.7339 114.03 16.6944C116.096 18.2466 116.248 21.0858 115.656 23.8345C115.298 25.3229 113.874 26.4076 112.34 26.6279C110.729 26.8594 109.464 26.7845 107.779 25.8194C106.747 25.1362 106.199 24.0805 105.886 22.9958C105.697 22.563 105.855 21.9245 105.743 21.5387C105.556 21.4135 105.323 21.182 105.054 21.352C104.762 21.5041 104.544 21.7299 104.324 21.9816C104.357 22.8504 104.324 38.2611 104.324 38.5765C105.084 38.5798 105.908 38.5798 106.716 38.5798V43.2608L91.8167 43.2653V38.6078C92.3643 38.5619 93.3309 38.6078 94.1297 38.5921C94.2063 37.3654 94.1297 20.2024 94.1297 20.2024L91.8167 20.2181C91.8314 18.7755 91.7964 17.3184 91.8314 15.8725C92.2674 15.8725 104.073 15.8256 104.323 15.8915C104.305 16.2639 104.381 17.5454 104.559 17.4403C104.909 17.4358 105.023 17.0221 105.276 16.8666C106.715 15.9374 108.213 15.5952 109.838 15.4856C109.838 15.4834 109.858 15.4789 109.904 15.4834Z" fill="#C7C7C7"/>
</svg>
