<svg width="28" height="28" viewBox="0 0 28 28" fill="none" xmlns="http://www.w3.org/2000/svg">
<path d="M7.8056 19.0061C7.47756 19.3342 7.47756 19.8659 7.8056 20.194C8.13363 20.522 8.6655 20.522 8.99354 20.194L7.8056 19.0061ZM14.5935 14.594C14.9216 14.2659 14.9216 13.7342 14.5935 13.4061C14.2655 13.0781 13.7337 13.0781 13.4056 13.4061L14.5935 14.594ZM13.4056 13.4061C13.0776 13.7342 13.0776 14.2659 13.4056 14.594C13.7337 14.922 14.2655 14.922 14.5935 14.594L13.4056 13.4061ZM20.1935 8.99403C20.5216 8.66599 20.5216 8.13412 20.1935 7.80609C19.8655 7.47805 19.3337 7.47805 19.0056 7.80609L20.1935 8.99403ZM14.5935 13.4061C14.2655 13.0781 13.7337 13.0781 13.4056 13.4061C13.0776 13.7342 13.0776 14.2659 13.4056 14.594L14.5935 13.4061ZM19.0056 20.194C19.3337 20.522 19.8655 20.522 20.1935 20.194C20.5216 19.8659 20.5216 19.3342 20.1935 19.0061L19.0056 20.194ZM13.4056 14.594C13.7337 14.922 14.2655 14.922 14.5935 14.594C14.9216 14.2659 14.9216 13.7342 14.5935 13.4061L13.4056 14.594ZM8.99354 7.80609C8.6655 7.47805 8.13363 7.47805 7.8056 7.80609C7.47756 8.13412 7.47756 8.66599 7.8056 8.99403L8.99354 7.80609ZM8.99354 20.194L14.5935 14.594L13.4056 13.4061L7.8056 19.0061L8.99354 20.194ZM14.5935 14.594L20.1935 8.99403L19.0056 7.80609L13.4056 13.4061L14.5935 14.594ZM13.4056 14.594L19.0056 20.194L20.1935 19.0061L14.5935 13.4061L13.4056 14.594ZM14.5935 13.4061L8.99354 7.80609L7.8056 8.99403L13.4056 14.594L14.5935 13.4061Z" fill="#8A8A8A"/>
</svg>
