<svg width="15" height="15" viewBox="0 0 15 15" fill="none" xmlns="http://www.w3.org/2000/svg">
<path d="M0.00441444 1.90624C-0.0712531 0.83427 0.836479 0 1.90891 0H4.20454C4.75504 0 5.25155 0.331695 5.46328 0.8409L6.42322 3.1496C6.65707 3.71199 6.4911 4.36158 6.01635 4.74219L5.41795 5.2219C5.15091 5.43598 5.06012 5.80514 5.21845 6.1086C6.03217 7.66808 7.2348 8.9916 8.6973 9.95002C9.006 10.1523 9.41377 10.0718 9.6441 9.78338L10.2676 9.00225C10.6474 8.52653 11.2957 8.36025 11.8569 8.59455L14.1608 9.5565C14.669 9.76867 15 10.2662 15 10.8178V13.125C15 14.1997 14.1367 15.0716 13.0669 14.9956C6.22657 14.5089 0.489349 8.77627 0.00441444 1.90624Z" fill="#FDFDFD"/>
</svg>
