<svg width="20" height="20" viewBox="0 0 20 20" fill="none" xmlns="http://www.w3.org/2000/svg">
<path d="M10.0013 18.3333C14.6037 18.3333 18.3346 14.6024 18.3346 9.99999C18.3346 5.39762 14.6037 1.66666 10.0013 1.66666C5.39893 1.66666 1.66797 5.39762 1.66797 9.99999C1.66797 14.6024 5.39893 18.3333 10.0013 18.3333Z" stroke="#A09071" stroke-width="0.8" stroke-linecap="square"/>
<path d="M10.0013 18.3333C12.2235 16.3131 13.3346 13.5353 13.3346 9.99999C13.3346 6.46464 12.2235 3.68686 10.0013 1.66666C7.77908 3.68686 6.66797 6.46464 6.66797 9.99999C6.66797 13.5353 7.77908 16.3131 10.0013 18.3333Z" stroke="#A09071" stroke-width="0.8" stroke-linecap="round"/>
<path d="M2.08203 7.5H17.9154M2.08203 12.5H17.9154" stroke="#A09071" stroke-width="0.8" stroke-linecap="round"/>
</svg>
