<svg width="17" height="14" viewBox="0 0 17 14" fill="none" xmlns="http://www.w3.org/2000/svg">
<path fill-rule="evenodd" clip-rule="evenodd" d="M1.11675 5.79786C5.47861 3.8974 8.38699 2.64437 9.84187 2.03879C13.9972 0.31135 14.8651 0.0113497 15.4233 0.000186946C15.6302 -0.0038363 15.8333 0.0571671 16.0037 0.174606C16.1234 0.277754 16.1996 0.422283 16.2172 0.579257C16.2473 0.774479 16.2557 0.972421 16.2423 1.16949C16.0177 3.54158 15.0423 9.27507 14.547 11.9248C14.3377 13.0411 13.9247 13.422 13.5242 13.4597C12.6563 13.5393 11.9893 12.8848 11.1521 12.3337C9.83489 11.47 9.09117 10.9383 7.81303 10.09C6.33535 9.11321 7.29396 8.58158 8.13535 7.70809C8.35582 7.47926 12.1819 3.99647 12.2572 3.68112C12.2672 3.63455 12.266 3.5863 12.2539 3.54025C12.2418 3.49421 12.219 3.45165 12.1875 3.416C12.1416 3.38738 12.0898 3.36982 12.036 3.36474C11.9823 3.35965 11.928 3.36717 11.8777 3.3867C11.7465 3.41554 9.64326 4.80577 5.56792 7.5574C4.97071 7.96763 4.42978 8.16763 3.94512 8.1574C3.41071 8.14484 2.38372 7.85461 1.61907 7.59926C0.682792 7.29507 -0.0553412 7.13461 0.00326344 6.62251C0.0376821 6.35461 0.408842 6.07972 1.11675 5.79786Z" fill="#FEFEFE"/>
</svg>
