<svg width="18" height="18" viewBox="0 0 18 18" fill="none" xmlns="http://www.w3.org/2000/svg">
<path d="M1.5 13.1253H5.25" stroke="#353535" stroke-width="1.125" stroke-miterlimit="10" stroke-linecap="round" stroke-linejoin="round"/>
<path d="M16.5 4.87527H12.75" stroke="#353535" stroke-width="1.125" stroke-miterlimit="10" stroke-linecap="round" stroke-linejoin="round"/>
<path d="M9.75 13.1253H16.5" stroke="#353535" stroke-width="1.125" stroke-miterlimit="10" stroke-linecap="round" stroke-linejoin="round"/>
<path d="M8.25 4.87527H1.5" stroke="#353535" stroke-width="1.125" stroke-miterlimit="10" stroke-linecap="round" stroke-linejoin="round"/>
<path d="M7.5 15.3001C6.25736 15.3001 5.25 14.2928 5.25 13.0501C5.25 11.8075 6.25736 10.8001 7.5 10.8001C8.74268 10.8001 9.75 11.8075 9.75 13.0501C9.75 14.2928 8.74268 15.3001 7.5 15.3001Z" stroke="#353535" stroke-width="1.125" stroke-miterlimit="10" stroke-linecap="round" stroke-linejoin="round"/>
<path d="M10.5 7.05013C11.7427 7.05013 12.75 6.04277 12.75 4.80013C12.75 3.55749 11.7427 2.55013 10.5 2.55013C9.25732 2.55013 8.25 3.55749 8.25 4.80013C8.25 6.04277 9.25732 7.05013 10.5 7.05013Z" stroke="#353535" stroke-width="1.125" stroke-miterlimit="10" stroke-linecap="round" stroke-linejoin="round"/>
</svg>
