<svg width="15" height="15" viewBox="0 0 15 15" fill="none" xmlns="http://www.w3.org/2000/svg">
<path d="M0 14.9693L1.0535 11.1237C0.238472 9.70852 -0.0869231 8.06397 0.127757 6.44503C0.342436 4.82608 1.08519 3.32317 2.24089 2.16929C3.39658 1.01541 4.90066 0.275013 6.51994 0.0628786C8.13923 -0.149256 9.78327 0.178724 11.1972 0.995971C12.6111 1.81322 13.7159 3.07408 14.3404 4.5831C14.9649 6.09211 15.0741 7.76499 14.6511 9.34238C14.2281 10.9198 13.2966 12.3136 12.0009 13.3077C10.7052 14.3018 9.11777 14.8408 7.48465 14.8409C6.24585 14.8402 5.02693 14.5294 3.93908 13.9368L0 14.9693ZM6.51994 13.9368L4.34233 12.7368C5.29288 13.2997 6.37715 13.597 7.48187 13.5977C8.84989 13.598 10.1792 13.1436 11.2609 12.306C12.3425 11.4684 13.1151 10.2951 13.4572 8.97057C13.7994 7.64602 14.8811 10.599 14.3404 9.34238C13.7997 8.08574 13.9667 12.4079 12.7697 11.7457C10.7131 13.3077 8.83375 13.7272 7.48187 13.9368C6.12998 14.1463 11.4106 12.3142 10.4702 13.3077C9.52978 14.3012 12.9046 2.88432 12.7697 4.24567C12.6347 5.60702 11.8611 1.58681 12.5881 2.74567L12.7697 4.24567L13.4572 10.2457L11.0881 12.8707L8.83813 13.9368H6.51994Z" fill="#FEFEFE"/>
<path fill-rule="evenodd" clip-rule="evenodd" d="M11.2209 9.18421C11.1748 9.10607 11.0506 9.06002 10.865 8.96793C10.6795 8.87583 9.7683 8.42653 9.59807 8.36374C9.42783 8.30095 9.30504 8.27165 9.17946 8.45723C9.05388 8.64281 8.70086 9.06002 8.59341 9.18421C8.48597 9.30839 8.37574 9.32374 8.19155 9.23025C7.64767 9.01184 7.14581 8.70072 6.7083 8.31072C6.30289 7.93572 5.95538 7.50263 5.67713 7.0256C5.56829 6.84002 5.66458 6.74653 5.75806 6.64746C5.85155 6.54839 5.94365 6.42979 6.03713 6.32235C6.11386 6.22875 6.17639 6.12438 6.22272 6.01258C6.24714 5.96132 6.25852 5.90481 6.25584 5.84809C6.25316 5.79138 6.23651 5.7362 6.20736 5.68746C6.16132 5.59537 5.78876 4.68281 5.63527 4.31165C5.48178 3.94049 5.33248 3.99909 5.21667 3.99211C5.10085 3.98514 4.98504 3.99211 4.86225 3.99211C4.76689 3.99369 4.67291 4.01524 4.58639 4.05538C4.49986 4.09551 4.42271 4.15334 4.35992 4.22514C4.15183 4.42245 3.98677 4.66065 3.87512 4.92478C3.76346 5.18891 3.70762 5.47328 3.71109 5.76002C3.71109 6.67258 4.37527 7.55444 4.46876 7.67863C4.56225 7.80281 5.77621 9.67537 7.63621 10.4777C7.98154 10.6267 8.3346 10.7571 8.69388 10.8684C9.07218 10.9833 9.47201 11.0086 9.86178 10.9423C10.2176 10.8893 10.9585 10.493 11.1176 10.0605C11.2767 9.62793 11.2669 9.26095 11.2209 9.18421Z" fill="#A09071"/>
</svg>
