<?xml version="1.0" encoding="utf-8"?><svg viewBox="0 0 28 28" xmlns="http://www.w3.org/2000/svg"
   xmlns:xlink="http://www.w3.org/1999/xlink" style="display: none;">
   <svg fill="none" viewBox="0 0 7 5" id="icon-arrow-down" xmlns="http://www.w3.org/2000/svg">
      <path d="M3.031 4.5 0 0h6.062l-3.03 4.5Z" fill="currentColor" />
   </svg>
   <svg fill="none" viewBox="0 0 13 13" id="icon-check" xmlns="http://www.w3.org/2000/svg">
      <path d="M2.167 6.831 4.832 9.48l6-5.958" stroke="currentColor" stroke-width="1.083" stroke-linecap="round"
         stroke-linejoin="round" />
   </svg>
   <svg fill="none" viewBox="0 0 11 7" id="icon-chevron-down" xmlns="http://www.w3.org/2000/svg">
      <path d="m10.5.5-5 5-5-5" stroke="currentColor" stroke-linecap="round" />
   </svg>
   <svg fill="none" viewBox="0 0 8 14" id="icon-chevron-left" xmlns="http://www.w3.org/2000/svg">
      <path d="m7.06 12.75-6-6 6-6" stroke="currentColor" stroke-width="1.5" stroke-linecap="round" />
   </svg>
   <svg fill="none" viewBox="0 0 8 14" id="icon-chevron-right" xmlns="http://www.w3.org/2000/svg">
      <path d="m.75.75 6 6-6 6" stroke="currentColor" stroke-width="1.5" stroke-linecap="round" />
   </svg>
   <svg fill="none" viewBox="0 0 20 20" id="icon-globe" xmlns="http://www.w3.org/2000/svg">
      <path d="M10.0013 18.3333C14.6037 18.3333 18.3346 14.6024 18.3346 9.99999C18.3346 5.39762 14.6037 1.66666 10.0013 1.66666C5.39893 1.66666 1.66797 5.39762 1.66797 9.99999C1.66797 14.6024 5.39893 18.3333 10.0013 18.3333Z" stroke="currentColor" stroke-width="0.8" stroke-linecap="square"/>
      <path d="M10.0013 18.3333C12.2235 16.3131 13.3346 13.5353 13.3346 9.99999C13.3346 6.46464 12.2235 3.68686 10.0013 1.66666C7.77908 3.68686 6.66797 6.46464 6.66797 9.99999C6.66797 13.5353 7.77908 16.3131 10.0013 18.3333Z" stroke="currentColor" stroke-width="0.8" stroke-linecap="round"/>
<path d="M2.08203 7.5H17.9154M2.08203 12.5H17.9154" stroke="currentColor" stroke-width="0.8" stroke-linecap="round"/>
   </svg>
   <svg fill="none" viewBox="0 0 28 28" id="icon-close" xmlns="http://www.w3.org/2000/svg">
      <path
         d="M7.806 19.006a.84.84 0 1 0 1.188 1.188l-1.188-1.188Zm6.788-4.412a.84.84 0 1 0-1.188-1.188l1.188 1.188Zm-1.188-1.188a.84.84 0 0 0 1.188 1.188l-1.188-1.188Zm6.787-4.412a.84.84 0 1 0-1.187-1.188l1.188 1.188Zm-5.6 4.412a.84.84 0 0 0-1.187 1.188l1.188-1.188Zm4.413 6.788a.84.84 0 0 0 1.188-1.188l-1.188 1.188Zm-5.6-5.6a.84.84 0 0 0 1.188-1.188l-1.188 1.188ZM8.994 7.806a.84.84 0 0 0-1.188 1.188l1.188-1.188Zm0 12.388 5.6-5.6-1.188-1.188-5.6 5.6 1.188 1.188Zm5.6-5.6 5.6-5.6-1.188-1.188-5.6 5.6 1.188 1.188Zm-1.188 0 5.6 5.6 1.188-1.188-5.6-5.6-1.188 1.188Zm1.188-1.188-5.6-5.6-1.188 1.188 5.6 5.6 1.188-1.188Z"
         fill="currentColor" />
   </svg>
   <svg fill="none" viewBox="0 0 18 18" id="icon-filter" xmlns="http://www.w3.org/2000/svg">
      <path
         d="M1.5 13.125h3.75M16.5 4.875h-3.75M9.75 13.125h6.75M8.25 4.875H1.5M7.5 15.3a2.25 2.25 0 1 1 0-4.5 2.25 2.25 0 0 1 0 4.5ZM10.5 7.05a2.25 2.25 0 1 0 0-4.5 2.25 2.25 0 0 0 0 4.5Z"
         stroke="currentColor" stroke-width="1.125" stroke-miterlimit="10" stroke-linecap="round"
         stroke-linejoin="round" />
   </svg>
   <svg fill="none" viewBox="0 0 15 15" id="icon-phone" xmlns="http://www.w3.org/2000/svg">
      <path
         d="M.004 1.906C-.07.834.836 0 1.91 0h2.296c.55 0 1.047.332 1.258.84l.96 2.31a1.368 1.368 0 0 1-.407 1.592l-.598.48a.715.715 0 0 0-.2.887 10.29 10.29 0 0 0 3.48 3.841.713.713 0 0 0 .946-.167l.624-.78a1.362 1.362 0 0 1 1.589-.408l2.304.961c.508.213.839.71.839 1.262v2.307c0 1.075-.863 1.947-1.933 1.87C6.227 14.51.489 8.777.004 1.907Z"
         fill="currentColor" />
   </svg>
   <svg fill="none" viewBox="0 0 10 11" id="icon-play" xmlns="http://www.w3.org/2000/svg">
      <path d="M9 4.466a1 1 0 0 1 0 1.732l-7.5 4.33A1 1 0 0 1 0 9.662v-8.66A1 1 0 0 1 1.5.134L9 4.465Z"
         fill="currentColor" />
   </svg>
   <svg fill="none" viewBox="0 0 17 14" id="icon-telegram" xmlns="http://www.w3.org/2000/svg">
      <path fill-rule="evenodd" clip-rule="evenodd"
         d="M1.117 5.798c4.362-1.9 7.27-3.154 8.725-3.76C13.997.312 14.865.012 15.423 0a.99.99 0 0 1 .58.175c.12.103.197.247.214.404.03.195.039.393.025.59-.224 2.373-1.2 8.106-1.695 10.756-.21 1.116-.622 1.497-1.023 1.535-.868.08-1.535-.575-2.372-1.126-1.317-.864-2.06-1.396-3.339-2.244-1.478-.977-.519-1.508.322-2.382.22-.229 4.047-3.712 4.122-4.027a.304.304 0 0 0-.07-.265.348.348 0 0 0-.31-.03c-.13.03-2.234 1.42-6.31 4.171-.596.41-1.137.61-1.622.6-.534-.012-1.561-.302-2.326-.558-.936-.304-1.674-.464-1.616-.976.035-.268.406-.543 1.114-.825Z"
         fill="currentColor" />
   </svg>
   <svg fill="none" viewBox="0 0 15 15" id="icon-whatsapp" xmlns="http://www.w3.org/2000/svg">
      <path
         d="m0 14.97 1.054-3.846a7.42 7.42 0 1 1 2.885 2.813L0 14.969Zm6.52-1.033-2.178-1.2a6.17 6.17 0 0 0 9.115-3.766c.342-1.325 1.424 1.628.883.371-.54-1.256-.373 3.066-1.57 2.404-2.057 1.562-3.936 1.981-5.288 2.19-1.352.21 3.929-1.622 2.988-.628-.94.993 2.435-10.424 2.3-9.062-.135 1.361-.909-2.66-.182-1.5l.182 1.5.687 6-2.369 2.625-2.25 1.066H6.52Z"
         fill="currentColor" />
      <path fill-rule="evenodd" clip-rule="evenodd"
         d="M11.22 9.184c-.045-.078-.17-.124-.355-.216-.185-.092-1.097-.541-1.267-.604-.17-.063-.293-.092-.419.093-.125.186-.478.603-.586.727-.107.124-.217.14-.401.046a5.066 5.066 0 0 1-1.484-.92 5.581 5.581 0 0 1-1.03-1.284c-.11-.186-.013-.28.08-.379.094-.099.186-.217.28-.325.076-.093.138-.198.185-.31a.345.345 0 0 0-.016-.325c-.046-.092-.418-1.004-.572-1.375-.153-.372-.303-.313-.418-.32-.116-.007-.232 0-.355 0a.682.682 0 0 0-.502.233A2.08 2.08 0 0 0 3.71 5.76c0 .913.664 1.794.758 1.919.093.124 1.307 1.996 3.167 2.799.346.149.699.28 1.058.39.378.115.778.14 1.168.074.356-.053 1.097-.449 1.256-.882.159-.432.149-.8.103-.876Z"
         fill="#A09071" />
   </svg>
</svg>